<svg width="24" height="24" viewBox="0 0 24 24" fill="none" xmlns="http://www.w3.org/2000/svg">
<path d="M22.3297 17.7258C22.3188 17.739 22.307 17.7515 22.2953 17.764C22.2902 17.7693 22.2857 17.7751 22.2803 17.7804L20.0303 20.0304C19.8897 20.171 19.6989 20.25 19.5 20.25C19.3011 20.25 19.1103 20.171 18.9697 20.0304C18.829 19.8897 18.75 19.6989 18.75 19.5C18.75 19.3011 18.829 19.1103 18.9697 18.9697L19.9393 18H18.8378C17.7635 17.999 16.705 17.742 15.7498 17.2505C14.7946 16.7589 13.9702 16.0469 13.3449 15.1734L9.43444 9.69846C8.94811 9.01906 8.30693 8.46529 7.56401 8.08298C6.82108 7.70068 5.99777 7.50084 5.16225 7.50002H3C2.80109 7.50002 2.61032 7.421 2.46967 7.28035C2.32902 7.1397 2.25 6.94893 2.25 6.75002C2.25 6.55111 2.32902 6.36034 2.46967 6.21969C2.61032 6.07904 2.80109 6.00002 3 6.00002H5.16225C6.2365 6.00108 7.29505 6.25803 8.25024 6.74958C9.20543 7.24113 10.0298 7.95315 10.6551 8.82668L14.5656 14.3016C15.0519 14.981 15.6931 15.5347 16.436 15.9171C17.1789 16.2994 18.0022 16.4992 18.8378 16.5H19.9393L18.9697 15.5304C18.829 15.3897 18.75 15.1989 18.75 15C18.75 14.8011 18.829 14.6103 18.9697 14.4697C19.1103 14.329 19.3011 14.25 19.5 14.25C19.6989 14.25 19.8897 14.329 20.0303 14.4697L22.2803 16.7197C22.2857 16.7249 22.2902 16.7307 22.2953 16.7361C22.307 16.7486 22.3187 16.761 22.3297 16.7742C22.3382 16.7845 22.3457 16.7955 22.3536 16.8062C22.3601 16.8152 22.3672 16.8238 22.3733 16.8331C22.3813 16.845 22.3883 16.8573 22.3955 16.8695C22.4007 16.8784 22.4063 16.8869 22.4111 16.896C22.4177 16.9082 22.4232 16.9206 22.4289 16.933C22.4336 16.9429 22.4385 16.9526 22.4427 16.9627C22.4476 16.9745 22.4516 16.9866 22.4558 16.9987C22.4599 17.0097 22.4641 17.0207 22.4676 17.032C22.4712 17.0441 22.4739 17.0563 22.4769 17.0685C22.4798 17.0801 22.4831 17.0915 22.4854 17.1032C22.4882 17.1174 22.49 17.1317 22.4919 17.1461C22.4933 17.156 22.4952 17.1657 22.4963 17.1758C22.5012 17.2251 22.5012 17.2749 22.4963 17.3243C22.4953 17.3343 22.4933 17.344 22.4919 17.354C22.49 17.3683 22.4882 17.3827 22.4854 17.3968C22.4831 17.4085 22.4798 17.4199 22.4769 17.4315C22.4739 17.4437 22.4712 17.4559 22.4676 17.4681C22.4641 17.4793 22.4599 17.4903 22.4559 17.5014C22.4516 17.5135 22.4476 17.5256 22.4428 17.5374C22.4385 17.5475 22.4335 17.5571 22.4289 17.5671C22.4232 17.5795 22.4177 17.5918 22.4111 17.604C22.4063 17.6131 22.4007 17.6216 22.3955 17.6306C22.3883 17.6427 22.3814 17.655 22.3733 17.6669C22.3672 17.6762 22.3602 17.6848 22.3537 17.6938C22.3457 17.7045 22.3382 17.7154 22.3297 17.7258ZM13.4075 10.0295C13.4876 10.0868 13.5782 10.1277 13.6742 10.15C13.7702 10.1722 13.8696 10.1753 13.9667 10.1591C14.0639 10.143 14.1569 10.1078 14.2405 10.0556C14.324 10.0034 14.3965 9.9353 14.4537 9.85511L14.5656 9.69855C15.0519 9.01914 15.6931 8.46534 16.436 8.08302C17.1789 7.7007 18.0022 7.50085 18.8378 7.50002H19.9393L18.9697 8.46968C18.829 8.61033 18.75 8.8011 18.75 9.00002C18.75 9.19894 18.829 9.38971 18.9697 9.53036C19.1103 9.67102 19.3011 9.75004 19.5 9.75004C19.6989 9.75004 19.8897 9.67102 20.0303 9.53036L22.2803 7.28036C22.2857 7.27511 22.2902 7.2693 22.2953 7.26396C22.307 7.25149 22.3187 7.23902 22.3297 7.2258C22.3382 7.21549 22.3457 7.20452 22.3536 7.19383C22.3601 7.18483 22.3672 7.17621 22.3733 7.16693C22.3813 7.15502 22.3883 7.14274 22.3955 7.13055C22.4007 7.12164 22.4063 7.11311 22.4111 7.10402C22.4177 7.09183 22.4232 7.07946 22.4289 7.06708C22.4336 7.05714 22.4385 7.04749 22.4427 7.03736C22.4476 7.02555 22.4516 7.01346 22.4558 7.00136C22.4599 6.9903 22.4641 6.97933 22.4676 6.96808C22.4712 6.95589 22.4739 6.94371 22.4769 6.93152C22.4798 6.91989 22.4831 6.90855 22.4854 6.89683C22.4882 6.88268 22.4901 6.86833 22.4919 6.85399C22.4933 6.84405 22.4952 6.8343 22.4963 6.82427C22.5012 6.77489 22.5012 6.72515 22.4963 6.67577C22.4953 6.66574 22.4933 6.65599 22.4919 6.64605C22.4901 6.63171 22.4882 6.61736 22.4854 6.60321C22.4831 6.59149 22.4798 6.58014 22.4769 6.56852C22.4739 6.55633 22.4712 6.54414 22.4676 6.53196C22.4641 6.52071 22.4599 6.50974 22.4559 6.49868C22.4516 6.48658 22.4476 6.47449 22.4428 6.46268C22.4385 6.45255 22.4336 6.44289 22.4289 6.43296C22.4232 6.42058 22.4177 6.40821 22.4111 6.39602C22.4063 6.38693 22.4007 6.37839 22.3955 6.36949C22.3883 6.3573 22.3814 6.34502 22.3733 6.33311C22.3672 6.32383 22.3602 6.31521 22.3537 6.30621C22.3457 6.29552 22.3382 6.28464 22.3297 6.27424C22.3188 6.26102 22.307 6.24855 22.2953 6.23608C22.2902 6.23074 22.2857 6.22493 22.2803 6.21968L20.0303 3.96968C19.9607 3.90003 19.878 3.84478 19.787 3.80709C19.696 3.7694 19.5985 3.75 19.5 3.75C19.4015 3.75 19.304 3.7694 19.213 3.80709C19.122 3.84478 19.0393 3.90003 18.9697 3.96968C18.9 4.03932 18.8448 4.122 18.8071 4.213C18.7694 4.304 18.75 4.40153 18.75 4.50002C18.75 4.59851 18.7694 4.69604 18.8071 4.78704C18.8448 4.87804 18.9 4.96072 18.9697 5.03036L19.9393 6.00002H18.8378C17.7635 6.00108 16.705 6.25803 15.7498 6.74958C14.7946 7.24113 13.9702 7.95315 13.3449 8.82668L13.2331 8.98333C13.1758 9.06347 13.1349 9.15411 13.1127 9.25007C13.0905 9.34603 13.0874 9.44542 13.1036 9.54258C13.1197 9.63974 13.1549 9.73275 13.2071 9.81631C13.2592 9.89987 13.3273 9.97234 13.4075 10.0296V10.0295ZM10.5924 13.9706C10.5123 13.9133 10.4217 13.8724 10.3257 13.8501C10.2298 13.8279 10.1304 13.8248 10.0332 13.841C9.93608 13.8572 9.84307 13.8923 9.75951 13.9445C9.67596 13.9967 9.6035 14.0648 9.54628 14.1449L9.43444 14.3015C8.94812 14.9809 8.30695 15.5347 7.56402 15.917C6.82109 16.2993 5.99778 16.4992 5.16225 16.5H3C2.80109 16.5 2.61032 16.579 2.46967 16.7197C2.32902 16.8603 2.25 17.0511 2.25 17.25C2.25 17.4489 2.32902 17.6397 2.46967 17.7804C2.61032 17.921 2.80109 18 3 18H5.16225C6.2365 17.999 7.29505 17.742 8.25024 17.2505C9.20543 16.7589 10.0298 16.0469 10.6551 15.1734L10.7669 15.0167C10.8242 14.9366 10.8651 14.8459 10.8873 14.75C10.9095 14.654 10.9126 14.5546 10.8965 14.4575C10.8803 14.3603 10.8451 14.2673 10.7929 14.1837C10.7408 14.1002 10.6727 14.0277 10.5925 13.9705L10.5924 13.9706Z" fill="white"/>
</svg>
